<?xml version="1.0" encoding="UTF-8"?>
<svg id="Layer_1" xmlns="http://www.w3.org/2000/svg" version="1.1" viewBox="0 0 214 29.6">
  <!-- Generator: Adobe Illustrator 29.4.0, SVG Export Plug-In . SVG Version: 2.1.0 Build 152)  -->
  <defs>
    <style>
      .st0 {
        fill: #8585c7;
      }
    </style>
  </defs>
  <path class="st0" d="M99.6,29.6c-1.9,0-3.7-.4-5.1-1-1.5-.7-2.6-1.7-3.4-2.9-.7-1.3-1.1-2.8-1-4.4.2-3.7,2.9-7,8.2-9.8h0c0-1.6.5-3.3,1-4.8.6-1.6,1.4-2.9,2.3-3.9,1.7-1.8,3.5-2.7,5.3-2.7h0c1,0,1.9.3,2.5.9.6.6.9,1.4.9,2.3,0,1.9-1.7,3.8-4.6,5.5-.5.3-1.4.8-2.7,1.5-1.3.6-2.1,1.1-2.6,1.3,0,.3,0,.6,0,.9,0,.3,0,.7,0,1.1,0,.5,0,1,.2,1.5h0c0,.7.3,1.3.5,1.9.5,1.4,1.1,2.6,1.7,3.6.4.6.7,1.1,1,1.5,1.1,1.5,2.5,2.8,3.9,3.7h0c0-.1.2-.2.2-.2,0-.1.3-.2.4-.3.8-.7,1.6-1.6,2.3-2.5,1-1.3,1.8-2.7,2.2-3.9h0v-.2c.3-.9.5-1.7.5-2.5v-.6h0c0-.2,0-.3,0-.3h0c0-.2,0-.3,0-.3,0-.2,0-.3-.2-.5l.2-.2h-.5c0-.1,0-.2,0-.2h0q0-.1,0-.2h0c-.2-.3-.5-.4-.7-.5h-.3c-.4,0-.8.1-1.2.4-.8.5-1.4,1.2-1.7,2.3-.2.6-.3,1.4-.3,2.1v.3h-1.4v-.3c0-.3,0-.6,0-.9.4-2.4,1.5-4.1,3.2-5.1.7-.4,1.4-.6,2.1-.6s.4,0,.6.1c.9.2,1.6.6,2,1.4.5.8.6,1.7.5,2.8,0,.5,0,.9-.2,1.3-.2.8-.6,1.9-1.4,3.3-.4.7-.6,1.1-1,1.6,0,.1-.2.3-.3.5-.5.7-1.2,1.6-2.2,2.5-.5.5-1.1,1-1.6,1.4.5.3.9.5,1.4.7s.9.4,1.3.5c0,0,.2.1.4.1h.2c.4.1.8.1,1.2.1h.7c.6-.1,1.2-.2,1.8-.5h0c0,0,0-.1.2-.1,1.2-.5,2.2-1.4,3-2.4h0c0-.1,0-.2,0-.2l.2-.3.7.8v.2c-2.1,2.8-4.7,4.1-7.7,4.1h0c-2,0-3.9-.6-5.7-1.6h0c-2.2,1.2-4.5,1.7-7,1.7h0ZM99.9,27.8c.5.1.9.1,1.2.1h0c1.5,0,2.9-.3,4.3-.7-2.1-1.5-3.8-3.5-5.1-6-1.3-2.5-2-5.3-2.2-8.3-.9.5-1.6,1.1-2.3,1.8h0v.2c-.4.3-.6.6-.9.9h0q0,.2,0,.3h0c0,.1,0,.1,0,.2-1.9,2.5-2.4,5.2-1.4,7.5.9,2.2,3.2,3.7,6.3,4.1h.4ZM106.2,1.4c-.9,0-1.8.4-2.6,1.1-.9.7-1.6,1.8-2.1,3s-.9,2.7-1,4.1v.5c2.1-1,3.6-2,4.7-2.7.9-.6,1.6-1.3,2.1-2.1.5-.8.8-1.5.9-2.2,0-.6,0-1-.5-1.3-.4-.2-.8-.4-1.5-.4v-.3.3Z"/>
  <g>
    <polygon class="st0" points="12.8 27.8 6.2 20.1 2.1 23.4 2.1 27.8 0 27.8 0 13.4 2.1 13.4 2.1 20.9 11.7 13.4 14.9 13.4 7.8 18.9 15.4 27.8 12.8 27.8"/>
    <rect class="st0" x="22.3" y="13.4" width="2.1" height="14.4"/>
    <polygon class="st0" points="46.5 27.8 35.7 16.1 35.7 27.8 33.6 27.8 33.6 13.4 36 13.4 46.8 25.1 46.8 13.4 48.9 13.4 48.9 27.8 46.5 27.8"/>
    <path class="st0" d="M65.5,28.2c-2.3,0-4.4-.7-6-2-1.7-1.4-2.6-3.3-2.6-5.7s.9-4.2,2.6-5.6c1.6-1.3,3.7-2,6-2s5.3,1,7.1,3l.3.4-1.8,1.2-.2-.2c-1.6-1.6-3.2-2.3-5.4-2.3s-3.3.5-4.5,1.5c-1.3,1.1-2,2.5-2,4.1,0,3.3,2.6,5.6,6.4,5.6s5.2-1.4,6.1-3.9h-7.1v-2.1h9.6v.5c0,2-.6,3.3-1.5,4.5-1.5,2-4,3-7,3Z"/>
  </g>
  <polygon class="st0" points="137.3 27.8 137.3 15.5 130.8 15.5 130.8 13.4 145.8 13.4 145.8 15.5 139.4 15.5 139.4 27.8 137.3 27.8"/>
  <path class="st0" d="M160.2,28.2c-4.5,0-7.6-2-7.6-5.1v-9.8h2.1v9.3c0,2.3,1.8,3.5,5.5,3.5s5.5-1.2,5.5-3.5v-9.3h2.1v9.8c0,3.1-3.1,5.1-7.6,5.1Z"/>
  <polygon class="st0" points="190 27.8 183.4 20.1 179.3 23.4 179.3 27.8 177.2 27.8 177.2 13.4 179.3 13.4 179.3 20.9 188.8 13.4 192 13.4 185 18.9 192.5 27.8 190 27.8"/>
  <polygon class="st0" points="200 27.8 200 13.4 213.5 13.4 213.5 15.5 202 15.5 202 19.2 210 19.2 210 21.2 202 21.2 202 25.8 214 25.8 214 27.8 200 27.8"/>
</svg>